<svg xmlns="http://www.w3.org/2000/svg" viewBox="0 0 24 24" fill="currentColor">
  <path d="M12.545 12.151L12.545 12.151 12.545 12.151z"/>
  <path d="M11.999 13.944L3.541 8.292C1.996 9.968 1.109 12.161 1.109 14.523c0 2.362.887 4.554 2.432 6.231l8.458-5.652V13.944z"/>
  <path d="M16.839 15.989l-3.731-2.489v-7.612l3.731-2.489C18.248 4.822 19.664 6.881 20.234 9.261c.571 2.38.244 4.887-.898 6.997C18.632 16.949 17.795 16.602 16.839 15.989z"/>
  <path d="M12.545 4.837L4.087 10.489C2.542 8.812 1.655 6.62 1.655 4.258 1.655 1.896 2.542.159 4.087-1.518l8.458 5.652V4.837z"/>
  <path d="M16.839 8.011l-3.731 2.489v7.612l3.731 2.489c1.409-1.422 2.825-3.481 3.395-5.861.571-2.38.244-4.887-.898-6.997C18.632 7.051 17.795 7.398 16.839 8.011z"/>
</svg>